<?xml version="1.0" encoding="utf-8"?>
<svg version="1.1" id="Vrstva_1" xmlns="http://www.w3.org/2000/svg" xmlns:xlink="http://www.w3.org/1999/xlink" x="0px" y="0px" viewBox="0 0 512 512">
	<path d="M12.1,235.6c10.4,0,17.9-3,22.5-9c4.6-6,6.9-13.8,6.9-23.5c0-17.4,0-34.8,0-52.2c0-9.9,1.3-18.7,3.8-26.5 c2.5-7.7,6.7-14.2,12.6-19.5c5.9-5.3,13.7-9.4,23.5-12.1c11.8-3.3,24.3-4.2,36.5-4.2c2.8,0,4.2,0,6.9,0c0,13.7,0,27.4,0,41.2	c-3.5,0-5.2,0-8.6,0c-10.4,0-17.4,2.3-20.9,6.9c-3.6,4.6-5.4,11.8-5.4,21.4c0,15.3,0,30.7,0,46c-0.5,10.3-1.2,20.8-4.8,30.4	c-3.2,8.4-11.5,17.1-19.4,21.4c7.8,4.3,16.2,13.1,19.4,21.4c3.7,9.7,4.4,20.1,4.8,30.4c0,15.3,0,30.7,0,46	c0,9.7,1.8,16.8,5.4,21.4c3.6,4.6,10.6,6.9,20.9,6.9c3.5,0,5.2,0,8.6,0c0,13.7,0,27.4,0,41.2c-2.8,0-4.2,0-6.9,0	c-12.2,0.1-24.7-0.9-36.5-4.2c-9.8-2.7-17.6-6.8-23.5-12.1c-5.9-5.3-10.1-11.8-12.6-19.5c-2.5-7.7-3.8-16.6-3.8-26.5	c0-17.4,0-34.8,0-52.2c0-9.7-2.3-17.5-6.9-23.5c-4.6-6-12.1-9-22.5-9C12.1,262.8,12.1,249.2,12.1,235.6z"/>
	<path d="M203.1,332.1c0,10.4-3.3,18.3-9.9,23.7c-6.6,5.4-14,8.1-22.3,8.1c-8.3,0-15.7-2.7-22.3-8.1c-6.6-5.4-9.9-13.3-9.9-23.7	c0-10.4,3.3-18.3,9.9-23.7c6.6-5.4,14-8.1,22.3-8.1s15.7,2.7,22.3,8.1C199.8,313.8,203.1,321.7,203.1,332.1z"/>
 <path d="M288.2,332.1c0,10.4-3.3,18.3-9.9,23.7c-6.6,5.4-14,8.1-22.3,8.1c-8.3,0-15.7-2.7-22.3-8.1c-6.6-5.4-9.9-13.3-9.9-23.7	s3.3-18.3,9.9-23.7c6.6-5.4,14-8.1,22.3-8.1c8.3,0,15.7,2.7,22.3,8.1C284.9,313.8,288.2,321.7,288.2,332.1z"/>
 <path d="M373.3,332.1c0,10.4-3.3,18.3-9.9,23.7c-6.6,5.4-14,8.1-22.3,8.1c-8.3,0-15.7-2.7-22.3-8.1c-6.6-5.4-9.9-13.3-9.9-23.7	c0-10.4,3.3-18.3,9.9-23.7c6.6-5.4,14-8.1,22.3-8.1c8.3,0,15.7,2.7,22.3,8.1C370,313.8,373.3,321.7,373.3,332.1z"/>
	<path d="M499.9,276.4c-10.4,0-17.9,3-22.5,9c-4.6,6-6.9,13.8-6.9,23.5c0,17.4,0,34.8,0,52.2c0,9.9-1.3,18.7-3.8,26.5	c-2.5,7.7-6.7,14.2-12.6,19.5c-5.9,5.3-13.8,9.4-23.5,12.1c-11.8,3.3-24.3,4.2-36.5,4.2c-2.8,0-4.2,0-6.9,0c0-13.7,0-27.4,0-41.2	c3.5,0,5.2,0,8.6,0c10.4,0,17.4-2.3,20.9-6.9c3.6-4.6,5.4-11.8,5.4-21.4c0-15.3,0-30.7,0-46c0.5-10.3,1.2-20.8,4.8-30.4	c3.2-8.4,11.6-17.1,19.4-21.4c-7.8-4.3-16.2-13.1-19.4-21.4c-3.7-9.7-4.4-20.1-4.8-30.4c0-15.3,0-30.7,0-46	c0-9.7-1.8-16.8-5.4-21.4c-3.6-4.6-10.6-6.9-20.9-6.9c-3.5,0-5.2,0-8.6,0c0-13.7,0-27.4,0-41.2c2.8,0,4.2,0,6.9,0	c12.2-0.1,24.7,0.9,36.5,4.2c9.8,2.7,17.6,6.8,23.5,12.1c5.9,5.3,10.1,11.8,12.6,19.5c2.5,7.7,3.8,16.6,3.8,26.5	c0,17.4,0,34.8,0,52.2c0,9.7,2.3,17.5,6.9,23.5c4.6,6,12.1,9,22.5,9C499.9,249.2,499.9,262.8,499.9,276.4z"/>
</svg>
